<svg width="512" height="512" viewBox="0 0 512 512" fill="none" xmlns="http://www.w3.org/2000/svg">
<rect width="512" height="512" rx="128" fill="#4F46E5"/>
<path d="M256 170C228.386 170 206 192.386 206 220V292C206 319.614 228.386 342 256 342C283.614 342 306 319.614 306 292V220C306 192.386 283.614 170 256 170ZM286 292C286 308.569 272.569 322 256 322C239.431 322 226 308.569 226 292V220C226 203.431 239.431 190 256 190C272.569 190 286 203.431 286 220V292Z" fill="white"/>
<path d="M346 246C346 241.582 342.418 238 338 238C333.582 238 330 241.582 330 246V292C330 332.869 296.869 366 256 366C215.131 366 182 332.869 182 292V246C182 241.582 178.418 238 174 238C169.582 238 166 241.582 166 246V292C166 342.661 206.645 384 256 384C305.355 384 346 342.661 346 292V246Z" fill="white"/>
<path d="M133.5 245.5C130.739 245.5 128.5 247.739 128.5 250.5V277.5C128.5 280.261 130.739 282.5 133.5 282.5C136.261 282.5 138.5 280.261 138.5 277.5V250.5C138.5 247.739 136.261 245.5 133.5 245.5Z" fill="white"/>
<path d="M133.5 214.5C130.739 214.5 128.5 216.739 128.5 219.5V226.5C128.5 229.261 130.739 231.5 133.5 231.5C136.261 231.5 138.5 229.261 138.5 226.5V219.5C138.5 216.739 136.261 214.5 133.5 214.5Z" fill="white"/>
<path d="M378.5 245.5C375.739 245.5 373.5 247.739 373.5 250.5V277.5C373.5 280.261 375.739 282.5 378.5 282.5C381.261 282.5 383.5 280.261 383.5 277.5V250.5C383.5 247.739 381.261 245.5 378.5 245.5Z" fill="white"/>
<path d="M378.5 214.5C375.739 214.5 373.5 216.739 373.5 219.5V226.5C373.5 229.261 375.739 231.5 378.5 231.5C381.261 231.5 383.5 229.261 383.5 226.5V219.5C383.5 216.739 381.261 214.5 378.5 214.5Z" fill="white"/>
</svg>
